<svg xmlns="http://www.w3.org/2000/svg" viewBox="0 0 96 96">
  <rect x="18" y="8" width="72" height="80" rx="20" fill="#F5E642" stroke="#1A1A18" stroke-width="4"/>
  <g fill="#1A1A18">
    <rect x="4" y="20" width="26" height="9" rx="4.5"/>
    <rect x="4" y="32" width="26" height="9" rx="4.5"/>
    <rect x="4" y="44" width="26" height="9" rx="4.5"/>
    <rect x="4" y="56" width="26" height="9" rx="4.5"/>
    <rect x="4" y="68" width="26" height="9" rx="4.5"/>
    <path fill-rule="evenodd" d="M44 30H58C71 30 78 39 78 48C78 57 71 66 58 66H44ZM54 39V57H58C63 57 66 54 66 48C66 42 63 39 58 39Z"/>
  </g>
</svg>
